<?xml version="1.0" encoding="utf-8"?>
<!-- Generator: Adobe Illustrator 24.1.1, SVG Export Plug-In . SVG Version: 6.00 Build 0)  -->
<svg version="1.1" id="Layer_1" xmlns="http://www.w3.org/2000/svg" xmlns:xlink="http://www.w3.org/1999/xlink" x="0px" y="0px"
	 viewBox="0 0 512 512" style="enable-background:new 0 0 512 512;" xml:space="preserve">
<g>
	<path d="M465.5,234.7v21.4c0,115.6-93.8,209.3-209.5,209.3h0l-0.1,0l-0.8,0l0.8,23.3l0-23.3c-115.6,0-209.3-93.8-209.3-209.5v0
		l0-0.1c0-115.6,93.8-209.3,209.5-209.3v-8.3l0,8.3h0v-8.3l0,8.3l0.1-21.9L255,46.5l1,0l0.1-21.9L255,46.5l1.2,0
		c29.3,0,58.3,6.2,85.1,18.1c11.7,5.2,25.5,0,30.7-11.8c5.2-11.7,0-25.5-11.8-30.7C327.4,7.6,292,0,256.2,0l0,23.3L257.3,0l-1.1,0
		H256C114.7,0,0.1,114.5,0,255.9l0-0.1l0,0.2c0,141.3,114.5,255.9,255.9,256l0.8,0l-0.7-21.4V512l0.7,0l-0.7-21.4V512h0.1
		c141.3,0,255.9-114.5,256-255.8l0-21.4c0-12.9-10.4-23.3-23.3-23.3C475.9,211.5,465.5,221.9,465.5,234.7L465.5,234.7z"/>
	<path d="M472.3,53.5L256,270l-53.4-53.4c-9.1-9.1-23.8-9.1-32.9,0c-9.1,9.1-9.1,23.8,0,32.9l69.8,69.8c4.4,4.4,10.2,6.8,16.5,6.8
		c6.2,0,12.1-2.4,16.5-6.8l232.7-233c9.1-9.1,9.1-23.8,0-32.9C496.1,44.4,481.3,44.4,472.3,53.5L472.3,53.5z"/>
</g>
</svg>
